# Blender v2.79 (sub 0) OBJ File: 'ground.blend'
# www.blender.org
mtllib ground.mtl
o Circle
v 0.000001 -0.586250 -64.000000
v -24.491741 0.713750 -59.128288
v -45.254829 0.713750 -45.254833
v -59.128284 0.713750 -24.491739
v -63.999996 0.713750 0.000003
v -59.128284 0.713750 24.491745
v -45.254829 0.713750 45.254833
v -24.491743 0.713750 59.128288
v -0.000009 0.713750 64.000000
v 24.491726 0.713750 59.128296
v 45.254826 0.713750 45.254848
v 59.128292 0.713750 24.491749
v 64.000000 0.713750 -0.000001
v 59.128288 0.713750 -24.491751
v 45.254822 0.713750 -45.254848
v 24.491711 0.713750 -59.128304
v -4.514485 0.213750 -0.787406
v 0.000005 0.213750 -0.561708
v -8.341686 0.213750 -0.370635
v -10.898946 0.213750 0.035684
v -11.796933 0.213750 0.000002
v -10.898946 0.213750 4.514486
v -8.341687 0.213750 8.341687
v -4.514482 0.213750 10.898949
v -0.000005 0.213750 11.796936
v 4.514487 0.213750 10.898945
v 8.341692 0.213750 8.341691
v 10.898950 0.213750 4.514491
v 11.796936 0.213750 0.000005
v 10.898945 0.213750 0.032820
v 8.341688 0.213750 -0.051368
v 4.514475 0.213750 -0.930522
v -19.497429 -1.186250 -47.070953
v 0.000004 -1.186250 -50.949234
v -36.026543 -1.186250 -36.026546
v -47.070950 -1.186250 -19.497427
v -50.949230 0.213750 0.000003
v -47.070950 0.213750 19.497431
v -36.026543 0.213750 36.026546
v -19.497429 0.213750 47.070953
v -0.000006 0.213750 50.949234
v 19.497417 0.213750 47.070957
v 36.026543 0.213750 36.026558
v 47.070957 0.213750 19.497435
v 50.949238 0.213750 0.000000
v 47.070953 -1.186250 -19.497437
v 36.026539 -1.186250 -36.026558
v 19.497402 -1.186250 -47.070965
v -14.503116 -1.986250 -35.013618
v 0.000005 -1.986250 -37.898468
v -26.798260 -1.986250 -26.798260
v -35.013615 -1.186250 -14.503115
v -37.898464 0.213750 0.000003
v -35.013615 0.213750 14.503117
v -26.798260 0.213750 26.798260
v -14.503114 0.213750 35.013618
v -0.000005 0.213750 37.898468
v 14.503108 0.213750 35.013618
v 26.798256 0.213750 26.798269
v 35.013622 0.213750 14.503120
v 37.898472 0.213750 0.000001
v 35.013618 -1.186250 -14.503120
v 26.798252 -1.986250 -26.798269
v 14.503094 -1.986250 -35.013626
v -9.508801 -1.186250 -22.956284
v 0.000006 -1.186250 -24.847702
v -17.569973 -1.186250 -17.569973
v -22.956284 -1.186250 -9.508801
v -24.847700 0.213750 0.000002
v -22.956284 0.213750 9.508802
v -17.569973 0.213750 17.569973
v -9.508800 0.213750 22.956284
v -0.000005 0.213750 24.847702
v 9.508798 0.213750 22.956282
v 17.569973 0.213750 17.569981
v 22.956284 0.213750 9.508804
v 24.847700 0.213750 0.000003
v 22.956280 -1.186250 -9.508804
v 17.569969 -1.186250 -17.569981
v 9.508784 -1.186250 -22.956287
v 0.000005 -3.000000 -125.000000
v -47.835430 -3.000000 -115.484940
v -88.388336 2.000000 -88.388344
v -115.484932 6.142715 -47.835430
v -124.999992 14.000000 0.000007
v -115.484932 34.000000 47.835438
v -88.388336 29.000000 88.388344
v -47.835430 39.000000 115.484940
v -0.000014 33.000000 125.000000
v 47.835407 34.000000 115.484955
v 88.388329 29.000000 88.388374
v 115.484947 34.000000 47.835445
v 125.000000 9.000000 -0.000000
v 115.484940 2.000000 -47.835449
v 88.388321 2.000000 -88.388374
v 47.835377 -3.000000 -115.484970
v -22.863861 -3.000000 -55.198257
v 0.000020 -3.000000 -59.746170
v -42.246906 -3.000000 -42.246910
v -55.198257 -3.000000 -22.863867
v -59.746155 -3.000000 0.000002
v -55.198257 -1.000000 22.863867
v -42.246906 -3.000000 42.246910
v -22.863853 -1.000000 55.198257
v -0.000001 -3.000000 59.746166
v 22.863857 -1.000000 55.198269
v 42.246910 -3.000000 42.246933
v 55.198273 -3.000000 22.863876
v 59.746166 -3.000000 0.000010
v 55.198257 -3.000000 -22.863876
v 42.246902 -3.000000 -42.246933
v 22.863834 -3.000000 -55.198284
v -45.338272 -3.000000 -109.456268
v 0.000006 -3.000000 -118.474617
v -83.774193 -3.000000 -83.774200
v -109.456268 2.000000 -45.338276
v -118.474609 14.000000 0.000007
v -109.456261 24.000000 45.338280
v -83.774193 9.000000 83.774200
v -45.338272 29.000000 109.456268
v -0.000013 9.000000 118.474617
v 45.338253 29.000000 109.456284
v 83.774185 9.000000 83.774231
v 109.456284 24.000000 45.338287
v 118.474617 14.000000 0.000000
v 109.456268 2.000000 -45.338291
v 83.774178 -3.000000 -83.774231
v 45.338223 -3.000000 -109.456299
v -40.343960 -3.000000 -97.398933
v 0.000008 -3.000000 -105.423851
v -74.545906 -1.964322 -74.545914
v -97.398933 -1.135778 -40.343964
v -105.423843 3.460442 0.000005
v -97.398926 14.000000 40.343964
v -74.545906 9.000000 74.545914
v -40.343956 18.000000 97.398933
v -0.000011 9.000000 105.423851
v 40.343945 18.000000 97.398949
v 74.545898 9.000000 74.545944
v 97.398949 16.000000 40.343975
v 105.423851 14.000000 0.000002
v 97.398933 -3.000000 -40.343979
v 74.545898 -3.000000 -74.545944
v 40.343914 -3.000000 -97.398964
v -32.852489 -3.000000 -79.312927
v 0.000013 -3.000000 -85.847702
v -60.703476 -3.000000 -60.703484
v -79.312927 -1.539559 -32.852493
v -85.847687 1.172690 0.000003
v -79.312927 10.000000 32.852493
v -60.703476 9.000000 60.703484
v -32.852486 11.000000 79.312927
v -0.000007 9.000000 85.847702
v 32.852478 11.000000 79.312943
v 60.703472 9.000000 60.703510
v 79.312943 2.000000 32.852505
v 85.847702 -3.000000 0.000005
v 79.312927 -3.000000 -32.852509
v 60.703472 -3.000000 -60.703510
v 32.852451 -3.000000 -79.312958
v -0.000025 40.085205 137.500000
v 52.618950 32.003864 127.033440
v 97.227173 38.642227 97.227196
v 127.033409 29.452667 52.618984
v 137.500000 20.190519 0.000004
v 127.033447 9.019674 -52.618973
v 97.227173 7.004205 -97.227165
v 52.618980 4.637501 -127.033440
v 0.000019 -2.421323 -137.500000
v -52.618942 3.665506 -127.033455
v -97.227150 6.060524 -97.227234
v -127.033424 17.315481 -52.618999
v -137.500000 17.864670 -0.000012
v -127.033440 33.284039 52.618977
v -97.227158 42.975510 97.227196
v -52.618942 35.589622 127.033470
v 49.872082 -34.562500 120.401901
v -0.000026 -34.562500 130.322083
v 92.151596 -34.562500 92.151619
v 120.401901 -29.062500 49.872112
v 130.322067 -32.963520 0.000004
v 120.401909 -29.912537 -49.872093
v 92.151634 -35.873783 -92.151619
v 49.872101 -32.006462 -120.401901
v 0.000017 -31.883514 -130.322083
v -49.872070 -33.427292 -120.401917
v -92.151604 -32.885509 -92.151657
v -120.401917 -32.415142 -49.872135
v -130.322083 -30.926100 -0.000012
v -120.401901 -29.062500 49.872112
v -92.151611 -34.562500 92.151657
v -49.872070 -34.562500 120.401932
vn 0.0000 1.0000 0.0000
vn 0.0472 0.9949 0.0897
vn 0.0816 0.9892 0.1221
vn 0.1221 0.9892 0.0816
vn 0.0976 0.9952 -0.0123
vn 0.0383 0.9992 -0.0076
vn 0.0325 0.9992 -0.0217
vn 0.0217 0.9992 -0.0325
vn 0.0076 0.9992 -0.0383
vn -0.0076 0.9992 -0.0383
vn -0.0217 0.9992 -0.0325
vn -0.0325 0.9992 -0.0217
vn -0.0383 0.9992 -0.0076
vn -0.0976 0.9952 -0.0123
vn -0.1221 0.9892 0.0816
vn -0.0816 0.9892 0.1221
vn -0.0472 0.9949 0.0897
vn 0.0122 0.9981 0.0612
vn 0.0347 0.9981 0.0519
vn 0.0388 0.9992 -0.0018
vn 0.0157 0.9968 -0.0790
vn -0.0157 0.9968 -0.0790
vn -0.0388 0.9992 -0.0018
vn -0.0347 0.9981 0.0519
vn -0.0122 0.9981 0.0612
vn -0.0122 0.9981 -0.0612
vn -0.0347 0.9981 -0.0519
vn -0.0078 0.9990 -0.0445
vn 0.0222 0.9935 -0.1114
vn -0.0222 0.9935 -0.1114
vn 0.0078 0.9990 -0.0445
vn 0.0347 0.9981 -0.0519
vn 0.0122 0.9981 -0.0612
vn -0.0071 0.9982 -0.0594
vn -0.0294 0.9977 -0.0603
vn -0.0602 0.9966 -0.0564
vn 0.0004 0.9893 -0.1461
vn -0.0003 0.9893 -0.1461
vn 0.0585 0.9967 -0.0571
vn 0.0313 0.9977 -0.0594
vn 0.0065 0.9982 -0.0597
vn 0.0039 0.9999 -0.0093
vn 0.2426 0.9303 0.2750
vn 0.5252 0.8113 0.2570
vn 0.3343 0.9331 -0.1324
vn 0.5388 0.7647 -0.3534
vn 0.8079 0.3911 -0.4408
vn 0.4049 0.3895 -0.8273
vn 0.2759 0.3507 -0.8949
vn -0.2650 0.4022 -0.8764
vn -0.3920 0.4525 -0.8010
vn -0.8079 0.3911 -0.4408
vn -0.2742 0.8810 -0.3855
vn 0.3151 0.9157 -0.2494
vn -0.3294 0.9303 0.1612
vn -0.2426 0.9303 0.2750
vn -0.0126 0.9991 -0.0402
vn 0.1047 0.9945 -0.0098
vn 0.4880 0.8699 -0.0714
vn 0.5685 0.7672 -0.2970
vn 0.4117 0.9110 -0.0243
vn -0.0328 0.8788 -0.4760
vn 0.3598 0.8788 -0.3134
vn -0.3598 0.8788 -0.3134
vn 0.0328 0.8788 -0.4760
vn -0.3710 0.9280 0.0332
vn -0.2647 0.9464 -0.1852
vn -0.2392 0.9332 -0.2683
vn -0.1903 0.9799 0.0597
vn 0.0265 0.9995 0.0147
vn 0.0482 0.9988 -0.0047
vn 0.0872 0.9928 -0.0818
vn 0.1051 0.9560 -0.2739
vn 0.1302 0.9915 0.0089
vn -0.0207 0.9736 -0.2273
vn 0.1754 0.9736 -0.1461
vn -0.1754 0.9736 -0.1461
vn 0.0207 0.9736 -0.2273
vn -0.2848 0.9395 -0.1903
vn -0.6002 0.7760 -0.1936
vn -0.4285 0.8952 -0.1227
vn 0.0380 0.9993 -0.0055
vn 0.1164 0.9929 -0.0252
vn 0.2391 0.9432 -0.2308
vn 0.3671 0.9111 -0.1874
vn 0.1824 0.9036 -0.3875
vn 0.1450 0.9036 -0.4030
vn -0.1450 0.9036 -0.4030
vn -0.1824 0.9036 -0.3875
vn -0.1957 0.9426 -0.2705
vn -0.0779 0.9915 -0.1045
vn -0.1866 0.0992 -0.9774
vn -0.5581 0.1002 -0.8237
vn -0.8247 0.1063 -0.5555
vn -0.9699 0.1251 -0.2090
vn -0.9717 0.1511 0.1813
vn -0.8265 0.1696 0.5367
vn -0.5450 0.1743 0.8201
vn -0.2044 0.2083 0.9565
vn 0.1997 0.2070 0.9578
vn 0.5505 0.1821 0.8147
vn 0.8308 0.1568 0.5340
vn 0.9715 0.1415 0.1904
vn 0.9687 0.1257 -0.2139
vn 0.8251 0.1001 -0.5561
vn 0.5586 0.0949 -0.8240
vn 0.1901 0.0968 -0.9770
usemtl Material.001
s off
f 17//1 19//1 20//1 21//1 22//1 23//1 24//1 25//1 26//1 27//1 28//1 29//1 30//1 31//1 32//1 18//1
f 33//2 34//2 1//2 2//2
f 35//3 33//3 2//3 3//3
f 36//4 35//4 3//4 4//4
f 37//5 36//5 4//5 5//5
f 38//6 37//6 5//6 6//6
f 39//7 38//7 6//7 7//7
f 40//8 39//8 7//8 8//8
f 41//9 40//9 8//9 9//9
f 42//10 41//10 9//10 10//10
f 43//11 42//11 10//11 11//11
f 44//12 43//12 11//12 12//12
f 45//13 44//13 12//13 13//13
f 46//14 45//14 13//14 14//14
f 47//15 46//15 14//15 15//15
f 48//16 47//16 15//16 16//16
f 34//17 48//17 16//17 1//17
f 49//18 50//18 34//18 33//18
f 51//19 49//19 33//19 35//19
f 52//20 51//20 35//20 36//20
f 53//21 52//21 36//21 37//21
f 54//1 53//1 37//1 38//1
f 55//1 54//1 38//1 39//1
f 56//1 55//1 39//1 40//1
f 57//1 56//1 40//1 41//1
f 58//1 57//1 41//1 42//1
f 59//1 58//1 42//1 43//1
f 60//1 59//1 43//1 44//1
f 61//1 60//1 44//1 45//1
f 62//22 61//22 45//22 46//22
f 63//23 62//23 46//23 47//23
f 64//24 63//24 47//24 48//24
f 50//25 64//25 48//25 34//25
f 65//26 66//26 50//26 49//26
f 67//27 65//27 49//27 51//27
f 68//28 67//28 51//28 52//28
f 69//29 68//29 52//29 53//29
f 70//1 69//1 53//1 54//1
f 71//1 70//1 54//1 55//1
f 72//1 71//1 55//1 56//1
f 73//1 72//1 56//1 57//1
f 74//1 73//1 57//1 58//1
f 75//1 74//1 58//1 59//1
f 76//1 75//1 59//1 60//1
f 77//1 76//1 60//1 61//1
f 78//30 77//30 61//30 62//30
f 79//31 78//31 62//31 63//31
f 80//32 79//32 63//32 64//32
f 66//33 80//33 64//33 50//33
f 17//34 18//34 66//34 65//34
f 19//35 17//35 65//35 67//35
f 20//36 19//36 67//36 68//36
f 21//37 20//37 68//37 69//37
f 22//1 21//1 69//1 70//1
f 23//1 22//1 70//1 71//1
f 24//1 23//1 71//1 72//1
f 25//1 24//1 72//1 73//1
f 26//1 25//1 73//1 74//1
f 27//1 26//1 74//1 75//1
f 28//1 27//1 75//1 76//1
f 29//1 28//1 76//1 77//1
f 30//38 29//38 77//38 78//38
f 31//39 30//39 78//39 79//39
f 32//40 31//40 79//40 80//40
f 18//41 32//41 80//41 66//41
f 97//42 99//42 100//42 101//42 102//42 103//42 104//42 105//42 106//42 107//42 108//42 109//42 110//42 111//42 112//42 98//42
f 113//1 114//1 81//1 82//1
f 115//43 113//43 82//43 83//43
f 116//44 115//44 83//44 84//44
f 117//45 116//45 84//45 85//45
f 118//46 117//46 85//46 86//46
f 119//47 118//47 86//47 87//47
f 120//48 119//48 87//48 88//48
f 121//49 120//49 88//49 89//49
f 122//50 121//50 89//50 90//50
f 123//51 122//51 90//51 91//51
f 124//52 123//52 91//52 92//52
f 125//53 124//53 92//53 93//53
f 126//54 125//54 93//54 94//54
f 127//55 126//55 94//55 95//55
f 128//56 127//56 95//56 96//56
f 114//1 128//1 96//1 81//1
f 129//1 130//1 114//1 113//1
f 131//57 129//57 113//57 115//57
f 132//58 131//58 115//58 116//58
f 133//59 132//59 116//59 117//59
f 134//60 133//60 117//60 118//60
f 135//61 134//61 118//61 119//61
f 136//62 135//62 119//62 120//62
f 137//63 136//63 120//63 121//63
f 138//64 137//64 121//64 122//64
f 139//65 138//65 122//65 123//65
f 140//66 139//66 123//66 124//66
f 141//67 140//67 124//67 125//67
f 142//68 141//68 125//68 126//68
f 143//69 142//69 126//69 127//69
f 144//1 143//1 127//1 128//1
f 130//1 144//1 128//1 114//1
f 145//1 146//1 130//1 129//1
f 147//70 145//70 129//70 131//70
f 148//71 147//71 131//71 132//71
f 149//72 148//72 132//72 133//72
f 150//73 149//73 133//73 134//73
f 151//74 150//74 134//74 135//74
f 152//75 151//75 135//75 136//75
f 153//76 152//76 136//76 137//76
f 154//77 153//77 137//77 138//77
f 155//78 154//78 138//78 139//78
f 156//79 155//79 139//79 140//79
f 157//80 156//80 140//80 141//80
f 158//81 157//81 141//81 142//81
f 159//1 158//1 142//1 143//1
f 160//1 159//1 143//1 144//1
f 146//1 160//1 144//1 130//1
f 97//1 98//1 146//1 145//1
f 99//1 97//1 145//1 147//1
f 100//82 99//82 147//82 148//82
f 101//83 100//83 148//83 149//83
f 102//84 101//84 149//84 150//84
f 103//85 102//85 150//85 151//85
f 104//86 103//86 151//86 152//86
f 105//87 104//87 152//87 153//87
f 106//88 105//88 153//88 154//88
f 107//89 106//89 154//89 155//89
f 108//90 107//90 155//90 156//90
f 109//91 108//91 156//91 157//91
f 110//1 109//1 157//1 158//1
f 111//1 110//1 158//1 159//1
f 112//1 111//1 159//1 160//1
f 98//1 112//1 160//1 146//1
f 177//92 178//92 161//92 162//92
f 179//93 177//93 162//93 163//93
f 180//94 179//94 163//94 164//94
f 181//95 180//95 164//95 165//95
f 182//96 181//96 165//96 166//96
f 183//97 182//97 166//97 167//97
f 184//98 183//98 167//98 168//98
f 185//99 184//99 168//99 169//99
f 186//100 185//100 169//100 170//100
f 187//101 186//101 170//101 171//101
f 188//102 187//102 171//102 172//102
f 189//103 188//103 172//103 173//103
f 190//104 189//104 173//104 174//104
f 191//105 190//105 174//105 175//105
f 192//106 191//106 175//106 176//106
f 178//107 192//107 176//107 161//107
