# Blender v2.79 (sub 0) OBJ File: 'ground.blend'
# www.blender.org
mtllib ground.mtl
o Circle
v 0.000001 -0.586250 -64.000000
v -24.491741 0.713750 -59.128288
v -45.254829 0.713750 -45.254833
v -59.128284 0.713750 -24.491739
v -63.999996 -0.286250 0.000003
v -59.128284 -0.286250 24.491745
v -45.254829 -0.286250 45.254833
v -24.491743 -0.286250 59.128288
v -0.000009 -0.286250 64.000000
v 24.491726 -0.286250 59.128296
v 45.254826 -0.286250 45.254848
v 59.128292 -0.286250 24.491749
v 64.000000 -0.286250 -0.000001
v 59.128288 0.713750 -24.491751
v 45.254822 0.713750 -45.254848
v 24.491711 0.713750 -59.128304
v -4.514485 0.213750 -2.178429
v 0.000005 0.213750 -2.543395
v -8.341686 0.213750 -0.609924
v -10.898946 0.213750 0.035684
v -11.796933 0.213750 0.000002
v -10.898946 0.213750 4.514486
v -8.341687 0.213750 8.341687
v -4.514482 0.213750 10.898949
v -0.000005 0.213750 11.796936
v 4.514487 0.213750 10.898945
v 8.341692 0.213750 8.341691
v 10.898950 0.213750 4.514491
v 11.796936 0.213750 0.000005
v 10.898945 0.213750 0.032820
v 8.341688 0.213750 -0.856730
v 4.514475 0.213750 -2.202912
v -19.497429 -1.186250 -47.070953
v 0.000004 -1.186250 -50.949234
v -36.026543 -1.186250 -36.026546
v -47.070950 -1.186250 -19.497427
v -50.949230 0.213750 0.000003
v -47.070950 0.213750 19.497431
v -36.026543 0.213750 36.026546
v -19.497429 0.213750 47.070953
v -0.000006 0.213750 50.949234
v 19.497417 0.213750 47.070957
v 36.026543 0.213750 36.026558
v 47.070957 0.213750 19.497435
v 50.949238 0.213750 0.000000
v 47.070953 -1.186250 -19.497437
v 36.026539 -1.186250 -36.026558
v 19.497402 -1.186250 -47.070965
v -14.503116 -1.986250 -35.013618
v 0.000005 -1.986250 -37.898468
v -26.798260 -1.986250 -26.798260
v -35.013615 -1.186250 -14.503115
v -37.898464 0.213750 0.000003
v -35.013615 0.213750 14.503117
v -26.798260 0.213750 26.798260
v -14.503114 0.213750 35.013618
v -0.000005 0.213750 37.898468
v 14.503108 0.213750 35.013618
v 26.798256 0.213750 26.798269
v 35.013622 0.213750 14.503120
v 37.898472 0.213750 0.000001
v 35.013618 -1.186250 -14.503120
v 26.798252 -1.986250 -26.798269
v 14.503094 -1.986250 -35.013626
v -9.508801 -1.186250 -22.956284
v 0.000006 -1.186250 -24.847702
v -17.569973 -1.186250 -17.569973
v -22.956284 -1.186250 -9.508801
v -24.847700 0.213750 0.000002
v -22.956284 0.213750 9.508802
v -17.569973 0.213750 17.569973
v -9.508800 0.213750 22.956284
v -0.000005 0.213750 24.847702
v 9.508798 0.213750 22.956282
v 17.569973 0.213750 17.569981
v 22.956284 0.213750 9.508804
v 24.847700 0.213750 0.000003
v 22.956280 -1.186250 -9.508804
v 17.569969 -1.186250 -17.569981
v 9.508784 -1.186250 -22.956287
v 0.000005 -3.000000 -125.000000
v -47.835430 -3.000000 -115.484940
v -88.388336 2.000000 -88.388344
v -115.484932 6.142715 -47.835430
v -124.999992 14.000000 0.000007
v -115.484932 34.000000 47.835438
v -88.388336 29.000000 88.388344
v -47.835430 39.000000 115.484940
v -0.000014 33.000000 125.000000
v 47.835407 34.000000 115.484955
v 88.388329 29.000000 88.388374
v 115.484947 34.000000 47.835445
v 125.000000 9.000000 -0.000000
v 115.484940 2.000000 -47.835449
v 88.388321 2.000000 -88.388374
v 47.835377 -3.000000 -115.484970
v -22.863861 -3.000000 -55.198257
v 0.000020 -3.000000 -59.746170
v -42.246906 -3.000000 -42.246910
v -55.198257 -3.000000 -22.863867
v -59.746155 -3.000000 0.000002
v -55.198257 -1.000000 22.863867
v -42.246906 -3.000000 42.246910
v -22.863853 -1.000000 55.198257
v -0.000001 -3.000000 59.746166
v 22.863857 -1.000000 55.198269
v 42.246910 -3.000000 42.246933
v 55.198273 -3.000000 22.863876
v 59.746166 -3.000000 0.000010
v 55.198257 -3.000000 -22.863876
v 42.246902 -3.000000 -42.246933
v 22.863834 -3.000000 -55.198284
v -45.338272 -3.000000 -109.456268
v 0.000006 -3.000000 -118.474617
v -83.774193 -3.000000 -83.774200
v -109.456268 2.000000 -45.338276
v -118.474609 14.000000 0.000007
v -109.456261 24.000000 45.338280
v -83.774193 9.000000 83.774200
v -45.338272 29.000000 109.456268
v -0.000013 9.000000 118.474617
v 45.338253 29.000000 109.456284
v 83.774185 9.000000 83.774231
v 109.456284 24.000000 45.338287
v 118.474617 14.000000 0.000000
v 109.456268 2.000000 -45.338291
v 83.774178 -3.000000 -83.774231
v 45.338223 -3.000000 -109.456299
v -40.343960 -3.000000 -97.398933
v 0.000008 -3.000000 -105.423851
v -74.545906 -1.964322 -74.545914
v -97.398933 -1.135778 -40.343964
v -105.423843 3.460442 0.000005
v -97.398926 14.000000 40.343964
v -74.545906 9.000000 74.545914
v -40.343956 18.000000 97.398933
v -0.000011 9.000000 105.423851
v 40.343945 18.000000 97.398949
v 74.545898 9.000000 74.545944
v 97.398949 16.000000 40.343975
v 105.423851 14.000000 0.000002
v 97.398933 -3.000000 -40.343979
v 74.545898 -3.000000 -74.545944
v 40.343914 -3.000000 -97.398964
v -32.852489 -3.000000 -79.312927
v 0.000013 -3.000000 -85.847702
v -60.703476 -3.000000 -60.703484
v -79.312927 -1.539559 -32.852493
v -85.847687 1.172690 0.000003
v -79.312927 10.000000 32.852493
v -60.703476 9.000000 60.703484
v -32.852486 11.000000 79.312927
v -0.000007 9.000000 85.847702
v 32.852478 11.000000 79.312943
v 60.703472 9.000000 60.703510
v 79.312943 2.000000 32.852505
v 85.847702 -3.000000 0.000005
v 79.312927 -3.000000 -32.852509
v 60.703472 -3.000000 -60.703510
v 32.852451 -3.000000 -79.312958
v -0.000025 40.085205 137.500000
v 52.618950 32.003864 127.033440
v 97.227173 38.642227 97.227196
v 127.033409 29.452667 52.618984
v 137.500000 20.190519 0.000004
v 127.033447 9.019674 -52.618973
v 97.227173 7.004205 -97.227165
v 52.618980 4.637501 -127.033440
v 0.000019 -2.421323 -137.500000
v -52.618942 3.665506 -127.033455
v -97.227150 6.060524 -97.227234
v -127.033424 17.315481 -52.618999
v -137.500000 17.864670 -0.000012
v -127.033440 33.284039 52.618977
v -97.227158 42.975510 97.227196
v -52.618942 35.589622 127.033470
v 49.872082 -34.562500 120.401901
v -0.000026 -34.562500 130.322083
v 92.151596 -34.562500 92.151619
v 120.401901 -29.062500 49.872112
v 130.322067 -32.963520 0.000004
v 120.401909 -29.912537 -49.872093
v 92.151634 -35.873783 -92.151619
v 49.872101 -32.006462 -120.401901
v 0.000017 -31.883514 -130.322083
v -49.872070 -33.427292 -120.401917
v -92.151604 -32.885509 -92.151657
v -120.401917 -32.415142 -49.872135
v -130.322083 -30.926100 -0.000012
v -120.401901 -29.062500 49.872112
v -92.151611 -34.562500 92.151657
v -49.872070 -34.562500 120.401932
vn 0.0039 0.9999 -0.0093
vn 0.0000 1.0000 0.0000
vn 0.2426 0.9303 0.2750
vn 0.5252 0.8113 0.2570
vn 0.3343 0.9331 -0.1324
vn 0.5388 0.7647 -0.3534
vn 0.8079 0.3911 -0.4408
vn 0.4049 0.3895 -0.8273
vn 0.2759 0.3507 -0.8949
vn -0.2650 0.4022 -0.8764
vn -0.3920 0.4525 -0.8010
vn -0.8079 0.3911 -0.4408
vn -0.2742 0.8810 -0.3855
vn 0.3151 0.9157 -0.2494
vn -0.3294 0.9303 0.1612
vn -0.2426 0.9303 0.2750
vn -0.0126 0.9991 -0.0402
vn 0.1047 0.9945 -0.0098
vn 0.4880 0.8699 -0.0714
vn 0.5685 0.7672 -0.2970
vn 0.4117 0.9110 -0.0243
vn -0.0328 0.8788 -0.4760
vn 0.3598 0.8788 -0.3134
vn -0.3598 0.8788 -0.3134
vn 0.0328 0.8788 -0.4760
vn -0.3710 0.9280 0.0332
vn -0.2647 0.9464 -0.1852
vn -0.2392 0.9332 -0.2683
vn -0.1903 0.9799 0.0597
vn 0.0265 0.9995 0.0147
vn 0.0482 0.9988 -0.0047
vn 0.0872 0.9928 -0.0818
vn 0.1051 0.9560 -0.2739
vn 0.1302 0.9915 0.0089
vn -0.0207 0.9736 -0.2273
vn 0.1754 0.9736 -0.1461
vn -0.1754 0.9736 -0.1461
vn 0.0207 0.9736 -0.2273
vn -0.2848 0.9395 -0.1903
vn -0.6002 0.7760 -0.1936
vn -0.4285 0.8952 -0.1227
vn 0.0380 0.9993 -0.0055
vn 0.1164 0.9929 -0.0252
vn 0.2391 0.9432 -0.2308
vn 0.3671 0.9111 -0.1874
vn 0.1824 0.9036 -0.3875
vn 0.1450 0.9036 -0.4030
vn -0.1450 0.9036 -0.4030
vn -0.1824 0.9036 -0.3875
vn -0.1957 0.9426 -0.2705
vn -0.0779 0.9915 -0.1045
vn -0.1866 0.0992 -0.9774
vn -0.5581 0.1002 -0.8237
vn -0.8247 0.1063 -0.5555
vn -0.9699 0.1251 -0.2090
vn -0.9717 0.1511 0.1813
vn -0.8265 0.1696 0.5367
vn -0.5450 0.1743 0.8201
vn -0.2044 0.2083 0.9565
vn 0.1997 0.2070 0.9578
vn 0.5505 0.1821 0.8147
vn 0.8308 0.1568 0.5340
vn 0.9715 0.1415 0.1904
vn 0.9687 0.1257 -0.2139
vn 0.8251 0.1001 -0.5561
vn 0.5586 0.0949 -0.8240
vn 0.1901 0.0968 -0.9770
vn 0.0472 0.9949 0.0897
vn 0.0816 0.9892 0.1221
vn 0.1221 0.9892 0.0816
vn 0.0553 0.9985 0.0019
vn -0.0383 0.9992 0.0076
vn -0.0325 0.9992 0.0217
vn -0.0217 0.9992 0.0325
vn -0.0076 0.9992 0.0383
vn 0.0076 0.9992 0.0383
vn 0.0217 0.9992 0.0325
vn 0.0325 0.9992 0.0217
vn 0.0383 0.9992 0.0076
vn -0.0553 0.9985 0.0019
vn -0.1221 0.9892 0.0816
vn -0.0816 0.9892 0.1221
vn -0.0472 0.9949 0.0897
vn 0.0122 0.9981 0.0612
vn 0.0347 0.9981 0.0519
vn 0.0388 0.9992 -0.0018
vn 0.0157 0.9968 -0.0790
vn -0.0157 0.9968 -0.0790
vn -0.0388 0.9992 -0.0018
vn -0.0347 0.9981 0.0519
vn -0.0122 0.9981 0.0612
vn -0.0122 0.9981 -0.0612
vn -0.0347 0.9981 -0.0519
vn -0.0078 0.9990 -0.0445
vn 0.0222 0.9935 -0.1114
vn -0.0222 0.9935 -0.1114
vn 0.0078 0.9990 -0.0445
vn 0.0347 0.9981 -0.0519
vn 0.0122 0.9981 -0.0612
vn -0.0102 0.9979 -0.0637
vn -0.0355 0.9975 -0.0606
vn -0.0614 0.9965 -0.0560
vn 0.0004 0.9893 -0.1461
vn -0.0003 0.9893 -0.1461
vn 0.0626 0.9965 -0.0555
vn 0.0347 0.9975 -0.0614
vn 0.0101 0.9979 -0.0637
usemtl Material.001
s off
f 97//1 99//1 100//1 101//1 102//1 103//1 104//1 105//1 106//1 107//1 108//1 109//1 110//1 111//1 112//1 98//1
f 113//2 114//2 81//2 82//2
f 115//3 113//3 82//3 83//3
f 116//4 115//4 83//4 84//4
f 117//5 116//5 84//5 85//5
f 118//6 117//6 85//6 86//6
f 119//7 118//7 86//7 87//7
f 120//8 119//8 87//8 88//8
f 121//9 120//9 88//9 89//9
f 122//10 121//10 89//10 90//10
f 123//11 122//11 90//11 91//11
f 124//12 123//12 91//12 92//12
f 125//13 124//13 92//13 93//13
f 126//14 125//14 93//14 94//14
f 127//15 126//15 94//15 95//15
f 128//16 127//16 95//16 96//16
f 114//2 128//2 96//2 81//2
f 129//2 130//2 114//2 113//2
f 131//17 129//17 113//17 115//17
f 132//18 131//18 115//18 116//18
f 133//19 132//19 116//19 117//19
f 134//20 133//20 117//20 118//20
f 135//21 134//21 118//21 119//21
f 136//22 135//22 119//22 120//22
f 137//23 136//23 120//23 121//23
f 138//24 137//24 121//24 122//24
f 139//25 138//25 122//25 123//25
f 140//26 139//26 123//26 124//26
f 141//27 140//27 124//27 125//27
f 142//28 141//28 125//28 126//28
f 143//29 142//29 126//29 127//29
f 144//2 143//2 127//2 128//2
f 130//2 144//2 128//2 114//2
f 145//2 146//2 130//2 129//2
f 147//30 145//30 129//30 131//30
f 148//31 147//31 131//31 132//31
f 149//32 148//32 132//32 133//32
f 150//33 149//33 133//33 134//33
f 151//34 150//34 134//34 135//34
f 152//35 151//35 135//35 136//35
f 153//36 152//36 136//36 137//36
f 154//37 153//37 137//37 138//37
f 155//38 154//38 138//38 139//38
f 156//39 155//39 139//39 140//39
f 157//40 156//40 140//40 141//40
f 158//41 157//41 141//41 142//41
f 159//2 158//2 142//2 143//2
f 160//2 159//2 143//2 144//2
f 146//2 160//2 144//2 130//2
f 97//2 98//2 146//2 145//2
f 99//2 97//2 145//2 147//2
f 100//42 99//42 147//42 148//42
f 101//43 100//43 148//43 149//43
f 102//44 101//44 149//44 150//44
f 103//45 102//45 150//45 151//45
f 104//46 103//46 151//46 152//46
f 105//47 104//47 152//47 153//47
f 106//48 105//48 153//48 154//48
f 107//49 106//49 154//49 155//49
f 108//50 107//50 155//50 156//50
f 109//51 108//51 156//51 157//51
f 110//2 109//2 157//2 158//2
f 111//2 110//2 158//2 159//2
f 112//2 111//2 159//2 160//2
f 98//2 112//2 160//2 146//2
f 177//52 178//52 161//52 162//52
f 179//53 177//53 162//53 163//53
f 180//54 179//54 163//54 164//54
f 181//55 180//55 164//55 165//55
f 182//56 181//56 165//56 166//56
f 183//57 182//57 166//57 167//57
f 184//58 183//58 167//58 168//58
f 185//59 184//59 168//59 169//59
f 186//60 185//60 169//60 170//60
f 187//61 186//61 170//61 171//61
f 188//62 187//62 171//62 172//62
f 189//63 188//63 172//63 173//63
f 190//64 189//64 173//64 174//64
f 191//65 190//65 174//65 175//65
f 192//66 191//66 175//66 176//66
f 178//67 192//67 176//67 161//67
usemtl Material.002
f 17//2 19//2 20//2 21//2 22//2 23//2 24//2 25//2 26//2 27//2 28//2 29//2 30//2 31//2 32//2 18//2
f 33//68 34//68 1//68 2//68
f 35//69 33//69 2//69 3//69
f 36//70 35//70 3//70 4//70
f 37//71 36//71 4//71 5//71
f 38//72 37//72 5//72 6//72
f 39//73 38//73 6//73 7//73
f 40//74 39//74 7//74 8//74
f 41//75 40//75 8//75 9//75
f 42//76 41//76 9//76 10//76
f 43//77 42//77 10//77 11//77
f 44//78 43//78 11//78 12//78
f 45//79 44//79 12//79 13//79
f 46//80 45//80 13//80 14//80
f 47//81 46//81 14//81 15//81
f 48//82 47//82 15//82 16//82
f 34//83 48//83 16//83 1//83
f 49//84 50//84 34//84 33//84
f 51//85 49//85 33//85 35//85
f 52//86 51//86 35//86 36//86
f 53//87 52//87 36//87 37//87
f 54//2 53//2 37//2 38//2
f 55//2 54//2 38//2 39//2
f 56//2 55//2 39//2 40//2
f 57//2 56//2 40//2 41//2
f 58//2 57//2 41//2 42//2
f 59//2 58//2 42//2 43//2
f 60//2 59//2 43//2 44//2
f 61//2 60//2 44//2 45//2
f 62//88 61//88 45//88 46//88
f 63//89 62//89 46//89 47//89
f 64//90 63//90 47//90 48//90
f 50//91 64//91 48//91 34//91
f 65//92 66//92 50//92 49//92
f 67//93 65//93 49//93 51//93
f 68//94 67//94 51//94 52//94
f 69//95 68//95 52//95 53//95
f 70//2 69//2 53//2 54//2
f 71//2 70//2 54//2 55//2
f 72//2 71//2 55//2 56//2
f 73//2 72//2 56//2 57//2
f 74//2 73//2 57//2 58//2
f 75//2 74//2 58//2 59//2
f 76//2 75//2 59//2 60//2
f 77//2 76//2 60//2 61//2
f 78//96 77//96 61//96 62//96
f 79//97 78//97 62//97 63//97
f 80//98 79//98 63//98 64//98
f 66//99 80//99 64//99 50//99
f 17//100 18//100 66//100 65//100
f 19//101 17//101 65//101 67//101
f 20//102 19//102 67//102 68//102
f 21//103 20//103 68//103 69//103
f 22//2 21//2 69//2 70//2
f 23//2 22//2 70//2 71//2
f 24//2 23//2 71//2 72//2
f 25//2 24//2 72//2 73//2
f 26//2 25//2 73//2 74//2
f 27//2 26//2 74//2 75//2
f 28//2 27//2 75//2 76//2
f 29//2 28//2 76//2 77//2
f 30//104 29//104 77//104 78//104
f 31//105 30//105 78//105 79//105
f 32//106 31//106 79//106 80//106
f 18//107 32//107 80//107 66//107
