# Blender v2.79 (sub 0) OBJ File: 'luyten.blend'
# www.blender.org
mtllib luyten.mtl
o Circle
v 2.926335 0.000000 -14.711779
v 5.740233 0.000000 -13.858196
v 8.333539 0.000000 -12.472051
v 10.606591 0.000000 -10.606610
v 12.472036 0.000000 -8.333565
v 13.858189 0.000000 -5.740263
v 14.711779 0.000000 -2.926366
v 15.000002 0.000000 -0.000010
v 14.711784 0.000000 2.926346
v 13.858201 0.000000 5.740244
v 12.472054 0.000000 8.333549
v 10.606611 0.000000 10.606600
v 8.333564 0.000000 12.472044
v 5.740261 0.000000 13.858194
v 2.926363 2.108943 14.711782
v 0.000007 2.011506 15.000004
v -2.926349 0.000000 14.711784
v -5.740246 0.000000 13.858199
v -8.333550 0.000000 12.472050
v -10.606599 0.000000 10.606606
v -12.472042 0.000000 8.333557
v -13.858191 0.000000 5.740253
v -14.711777 0.000000 2.926357
v -14.999997 0.000000 0.000003
v -14.711776 0.000000 -2.926351
v -13.858190 0.000000 -5.740247
v -12.472042 0.000000 -8.333549
v -10.606599 0.000000 -10.606597
v -8.333551 0.000000 -12.472039
v -5.740249 0.000000 -13.858188
v -2.926353 0.000000 -14.711774
v 0.000002 0.000000 -14.999995
v 0.101538 0.137439 -0.022749
v 0.200111 0.137439 -0.077450
v 0.292985 0.137439 -0.134104
v 0.411300 0.137439 -0.131746
v 0.532162 0.137439 -0.049895
v 0.666936 0.137439 -0.005641
v 0.767202 0.137439 -0.001263
v 0.800821 0.137439 0.000004
v 0.715547 0.137439 0.104580
v 0.630475 0.137439 0.236576
v 0.480507 0.137439 0.210945
v 0.429532 0.137439 0.171255
v 0.359835 0.137439 0.124996
v 0.260885 0.137439 0.183806
v 0.009118 0.137439 0.190071
v -0.131921 0.137439 0.274956
v -0.212262 0.137439 0.274964
v -0.311211 0.137439 0.191845
v -0.417372 0.137439 0.268489
v -0.498733 0.137439 0.198791
v -0.624392 0.137439 0.175805
v -0.679079 0.137439 0.055963
v -0.800816 0.137439 0.000004
v -0.785428 0.137439 -0.062032
v -0.636546 0.137439 -0.096796
v -0.504810 0.137439 -0.131935
v -0.420410 0.137439 -0.156055
v -0.359828 0.137439 -0.134104
v -0.312535 0.137439 -0.119989
v -0.165345 0.137439 -0.110867
v 0.003043 0.137439 0.019597
v 0.134965 0.137439 0.277995
v 2.675412 0.000000 -13.450299
v 5.248030 1.500853 -12.669908
v 7.618970 1.082582 -11.402618
v 9.697117 0.000000 -9.697133
v 11.402607 0.000000 -7.618993
v 12.669902 0.000000 -5.248057
v 13.450299 0.000000 -2.675441
v 13.713808 0.000000 -0.000009
v 13.450305 0.000000 2.675423
v 12.669912 0.000000 5.248041
v 11.402622 0.000000 7.618979
v 9.697135 0.000000 9.697124
v 7.618993 0.000000 11.402614
v 5.248055 0.000000 12.669907
v 0.000007 1.723318 13.713810
v -2.675426 1.299097 13.450305
v -5.248042 0.000000 12.669911
v -7.618979 1.764079 11.402619
v -9.697123 1.592442 9.697129
v -11.402611 0.000000 7.618987
v -12.669903 0.000000 5.248048
v -13.450297 0.000000 2.675433
v -13.713804 2.144899 0.000003
v -13.450296 1.775884 -2.675427
v -12.669902 0.000000 -5.248043
v -11.402612 0.000000 -7.618978
v -9.697123 0.000000 -9.697121
v -7.618981 0.946812 -11.402609
v -5.248044 1.719211 -12.669900
v -2.675429 0.000000 -13.450294
v 0.000003 0.000000 -13.713802
v 2.675439 0.000000 13.450303
v 2.424489 0.000000 -12.188820
v 4.755827 0.000000 -11.481619
v 6.904401 1.033374 -10.333187
v 8.787642 0.959561 -8.787656
v 10.333178 0.000000 -6.904421
v 11.481615 0.000000 -4.755851
v 12.188820 0.000000 -2.424516
v 12.427615 0.000000 -0.000008
v 12.188826 2.052646 2.424501
v 11.481625 1.891202 4.755837
v 10.333191 0.000000 6.904409
v 8.787659 2.283280 8.787649
v 6.904422 1.868139 10.333183
v 4.755850 2.052646 11.481619
v 0.000006 0.000000 12.427617
v -2.424503 0.000000 12.188826
v -4.755837 1.777040 11.481624
v -6.904408 0.000000 10.333189
v -8.787646 0.000000 8.787654
v -10.333180 1.704246 6.904416
v -11.481615 2.214089 4.755844
v -12.188818 1.130108 2.424510
v -12.427610 1.314616 0.000003
v -12.188817 0.000000 -2.424503
v -11.481614 0.000000 -4.755838
v -10.333181 0.000000 -6.904408
v -8.787646 0.000000 -8.787644
v -6.904410 0.000000 -10.333179
v -4.755840 0.000000 -11.481612
v -2.424505 0.000000 -12.188815
v 0.000003 0.000000 -12.427609
v 2.424515 0.000000 12.188824
v 2.173567 0.000000 -10.927341
v 4.263624 0.000000 -10.293331
v 6.189832 0.000000 -9.263755
v 7.878168 0.000000 -7.878179
v 9.263748 0.000000 -6.189849
v 10.293328 2.536978 -4.263645
v 10.927341 2.444725 -2.173591
v 11.141422 0.000000 -0.000006
v 10.927346 0.000000 2.173579
v 10.293337 0.000000 4.263633
v 9.263760 0.000000 6.189840
v 7.878182 1.522187 7.878174
v 6.189851 1.568314 9.263753
v 4.263645 0.000000 10.293331
v 0.000006 0.000000 11.141424
v -2.173579 0.000000 10.927346
v -4.263632 0.000000 10.293336
v -6.189837 0.000000 9.263759
v -7.878170 0.000000 7.878178
v -9.263750 0.000000 6.189846
v -10.293327 0.738030 4.263639
v -10.927339 0.738030 2.173586
v -11.141417 0.000000 0.000004
v -10.927338 0.000000 -2.173579
v -10.293326 0.000000 -4.263633
v -9.263751 0.000000 -6.189837
v -7.878170 0.000000 -7.878169
v -6.189839 0.000000 -9.263748
v -4.263635 0.000000 -10.293324
v -2.173581 0.000000 -10.927336
v 0.000004 0.000000 -11.141417
v 2.173590 0.000000 10.927344
v 1.922644 2.412019 -9.665861
v 3.771420 0.000000 -9.105043
v 5.475263 0.000000 -8.194324
v 6.968693 0.000000 -6.968701
v 8.194319 0.000000 -5.475277
v 9.105042 0.000000 -3.771439
v 9.665861 1.914265 -1.922666
v 9.855229 1.775885 -0.000005
v 9.665867 0.968665 1.922656
v 9.105049 0.000000 3.771429
v 8.194328 0.000000 5.475270
v 6.968705 0.000000 6.968699
v 5.475280 0.000000 8.194323
v 3.771440 0.000000 9.105043
v 0.000005 1.195921 9.855231
v -1.922656 2.000868 9.665867
v -3.771428 0.000000 9.105048
v -5.475266 0.000000 8.194328
v -6.968694 0.000000 6.968702
v -8.194320 0.000000 5.475275
v -9.105040 0.530459 3.771434
v -9.665859 0.000000 1.922662
v -9.855224 0.000000 0.000004
v -9.665858 0.000000 -1.922655
v -9.105039 0.000000 -3.771429
v -8.194320 0.000000 -5.475266
v -6.968695 0.000000 -6.968693
v -5.475268 0.000000 -8.194318
v -3.771430 0.000000 -9.105037
v -1.922656 0.000000 -9.665856
v 0.000005 2.974042 -9.855223
v 1.922666 0.000000 9.665865
v 1.671721 0.000000 -8.404382
v 3.279217 0.000000 -7.916755
v 4.760694 0.000000 -7.124892
v 6.059219 0.000000 -6.059224
v 7.124889 0.000000 -4.760705
v 7.916754 0.000000 -3.279233
v 8.404382 0.000000 -1.671741
v 8.569036 0.000000 -0.000003
v 8.404387 0.000000 1.671734
v 7.916761 0.000000 3.279225
v 7.124897 0.000000 4.760700
v 6.059228 0.000000 6.059223
v 4.760709 0.000000 7.124892
v 3.279235 0.000000 7.916756
v 0.000005 0.000000 8.569038
v -1.671733 0.919939 8.404387
v -3.279223 1.287915 7.916760
v -4.760695 1.057930 7.124898
v -6.059218 0.000000 6.059227
v -7.124889 0.000000 4.760705
v -7.916752 0.000000 3.279230
v -8.404380 0.000000 1.671738
v -8.569031 0.000000 0.000004
v -8.404379 0.000000 -1.671731
v -7.916751 0.936706 -3.279224
v -7.124889 1.287971 -4.760695
v -6.059218 1.428477 -6.059217
v -4.760697 0.000000 -7.124887
v -3.279226 0.000000 -7.916749
v -1.671732 0.000000 -8.404377
v 0.000006 0.000000 -8.569029
v 1.671741 0.000000 8.404386
v 1.420799 0.000000 -7.142902
v 2.787013 0.000000 -6.728467
v 4.046124 0.000000 -6.055460
v 5.149745 0.000000 -5.149746
v 6.055459 0.000000 -4.046133
v 6.728467 0.000000 -2.787028
v 7.142902 0.000000 -1.420816
v 7.282843 0.000000 -0.000001
v 7.142908 0.000000 1.420811
v 6.728474 0.000000 2.787021
v 6.055466 0.000000 4.046130
v 5.149752 0.000000 5.149748
v 4.046138 0.000000 6.055462
v 2.787030 0.000000 6.728469
v 0.000004 0.000000 7.282845
v -1.420809 0.000000 7.142908
v -2.787018 0.000000 6.728473
v -4.046124 0.000000 6.055468
v -5.149742 0.000000 5.149751
v -6.055458 0.000000 4.046134
v -6.728464 0.000000 2.787025
v -7.142900 0.000000 1.420814
v -7.282837 0.000000 0.000005
v -7.142900 0.000000 -1.420807
v -6.728463 1.405060 -2.787019
v -6.055458 0.000000 -4.046124
v -5.149742 0.000000 -5.149741
v -4.046126 1.592401 -6.055456
v -2.787021 1.568983 -6.728461
v -1.420808 1.896830 -7.142898
v 0.000007 0.000000 -7.282835
v 1.420816 0.000000 7.142906
v 1.169876 0.000000 -5.881422
v 2.294810 0.000000 -5.540178
v 3.331556 0.000000 -4.986028
v 4.240270 1.552541 -4.240268
v 4.986030 1.525229 -3.386824
v 5.540179 1.756324 -2.294822
v 5.881423 0.000000 -1.169892
v 5.996650 0.000000 0.000002
v 5.881428 0.000000 1.169889
v 5.540186 0.000000 2.294816
v 4.986034 0.000000 3.331559
v 4.240275 0.576586 4.240273
v 3.331567 0.645776 4.986032
v 2.294824 0.000000 5.540182
v 0.000003 0.924801 5.996652
v -1.169885 0.640246 5.881429
v -2.294814 0.474257 5.540185
v -3.331554 0.000000 4.986037
v -4.240266 0.000000 4.240275
v -4.986027 0.000000 3.331563
v -5.540176 0.000000 2.294821
v -5.881421 0.000000 1.169890
v -5.996644 0.000000 0.000005
v -5.881420 0.000000 -1.169883
v -5.540175 0.000000 -2.294814
v -4.986028 0.000000 -3.331553
v -4.240266 1.592401 -4.240265
v -3.331556 1.217718 -4.986026
v -2.294816 0.000000 -5.540174
v -1.169884 0.000000 -5.881418
v 0.000008 0.000000 -5.996642
v 1.169891 0.000000 5.881427
v 0.918954 0.000000 -4.619942
v 1.802606 0.000000 -4.351890
v 2.616987 0.000000 -3.916596
v 3.330796 0.000000 -3.330791
v 3.916601 0.000000 -2.616989
v 4.351892 0.000000 -1.802617
v 4.619944 0.000000 -0.918967
v 4.710456 0.000000 0.000004
v 4.619948 0.000000 0.918966
v 4.351898 0.000000 1.802612
v 3.916604 0.000000 2.616989
v 3.330798 0.000000 3.330798
v 2.616996 0.000000 3.916601
v 1.802619 0.000000 4.351894
v 0.000002 0.000000 4.710458
v -0.918962 0.000000 4.619949
v -1.802609 0.000000 4.351897
v -2.616983 0.000000 3.916606
v -3.330790 0.000000 3.330799
v -3.916596 0.000000 2.616993
v -4.351889 0.000000 1.802616
v -4.619942 0.000000 0.918966
v -4.710451 0.000000 0.000005
v -4.619941 0.000000 -0.918959
v -4.351888 0.000000 -1.802609
v -3.916597 0.000000 -2.616982
v -3.330790 0.000000 -3.330790
v -2.616985 0.000000 -3.916595
v -1.802612 0.000000 -4.351886
v -0.918961 0.000000 -4.619939
v 0.000008 0.000000 -4.710449
v 0.918967 0.000000 4.619947
vn 0.0000 1.0000 -0.0000
vn -0.0714 0.8407 -0.5367
vn 0.3781 0.9069 -0.1858
vn -0.4050 0.8628 0.3025
vn -0.3216 0.8734 0.3656
vn -0.5186 0.6063 0.6028
vn -0.5452 0.8256 0.1453
vn -0.5860 0.7358 0.3394
vn -0.8292 0.5464 -0.1177
vn -0.4551 0.7954 -0.4003
vn -0.3378 0.9264 -0.1660
vn -0.4219 0.6895 -0.5887
vn 0.0783 0.8047 -0.5885
vn -0.0386 0.7973 0.6023
vn 0.3804 0.7029 -0.6010
vn 0.0885 0.7414 -0.6651
vn 0.1398 0.7142 -0.6858
vn -0.3767 0.8364 0.3981
vn 0.3687 0.9216 -0.1214
vn 0.7976 0.5444 0.2599
vn 0.6884 0.7082 0.1568
vn 0.4120 0.5466 0.7290
vn 0.0215 0.6454 -0.7635
vn 0.0343 0.9789 0.2014
vn 0.4886 0.6063 -0.6274
vn -0.0199 0.9988 0.0445
vn -0.7116 0.5461 0.4420
vn -0.7907 0.6029 0.1066
vn -0.0652 0.9052 0.4199
vn 0.7139 0.6829 -0.1551
vn 0.6041 0.7902 -0.1029
vn 0.0848 0.9241 0.3725
vn 0.2466 0.6889 0.6816
vn 0.4126 0.7997 0.4361
vn -0.0046 1.0000 0.0033
vn -0.3330 0.8509 0.4063
vn 0.3768 0.9223 -0.0858
vn 0.6234 0.7447 -0.2383
vn 0.3682 0.7711 0.5195
vn 0.5067 0.5244 0.6843
vn -0.1121 0.7447 0.6580
vn 0.2147 0.7990 -0.5616
vn -0.3799 0.7890 0.4828
vn 0.4071 0.6617 -0.6296
vn 0.6769 0.6754 0.2924
vn -0.8080 0.5444 -0.2252
vn 0.2202 0.7523 -0.6209
vn -0.5014 0.7190 -0.4812
vn 0.4461 0.7833 -0.4329
vn 0.5957 0.7957 -0.1092
vn 0.7561 0.6182 -0.2148
vn 0.5002 0.7937 -0.3463
vn 0.5396 0.8279 -0.1528
vn 0.4648 0.8624 -0.2008
vn -0.0094 0.7833 -0.6216
vn -0.3519 0.9080 0.2275
vn -0.1452 0.9192 0.3661
vn 0.8537 0.4570 -0.2494
vn -0.5561 0.7372 -0.3838
vn -0.6452 0.7640 0.0097
vn -0.2991 0.9213 -0.2485
vn -0.4850 0.7372 -0.4705
vn 0.5585 0.6695 -0.4897
vn -0.7577 0.6507 -0.0497
vn 0.4273 0.7831 0.4518
vn 0.2683 0.9134 0.3060
vn -0.1843 0.8191 -0.5432
vn -0.5067 0.8110 -0.2925
vn 0.0448 0.6205 0.7830
vn -0.5092 0.7358 0.4465
vn 0.2065 0.9528 0.2225
vn 0.2943 0.9313 -0.2147
vn 0.2550 0.9469 -0.1957
vn -0.4915 0.5901 -0.6405
vn 0.1466 0.4285 -0.8915
vn -0.7860 0.6164 -0.0467
vn 0.7083 0.6761 0.2030
vn -0.4830 0.6379 -0.5998
vn 0.2935 0.8762 0.3824
vn 0.2393 0.6546 0.7171
vn -0.8154 0.5699 0.1022
vn -0.3991 0.9072 0.1332
vn 0.3958 0.7038 -0.5900
vn -0.4145 0.9087 -0.0489
vn -0.4359 0.8921 0.1192
vn 0.2442 0.9692 0.0309
vn 0.1509 0.9692 -0.1945
vn -0.3882 0.9124 0.1295
vn -0.6114 0.7528 -0.2438
vn -0.5793 0.6856 -0.4409
vn -0.0398 0.8254 -0.5631
vn -0.4055 0.5747 0.7108
vn -0.3595 0.7365 0.5731
vn -0.0220 0.4283 0.9034
vn -0.6409 0.7372 -0.2139
vn -0.7342 0.6743 0.0791
vn 0.2462 0.8678 -0.4316
vn 0.2990 0.9066 -0.2979
vn 0.2743 0.7542 -0.5966
vn -0.0009 0.8816 -0.4720
vn -0.3112 0.7902 0.5279
vn 0.4008 0.9063 -0.1343
vn 0.5426 0.6855 0.4854
vn -0.0811 0.9966 -0.0160
vn -0.3622 0.6293 -0.6876
vn -0.2929 0.5930 -0.7501
vn 0.3858 0.7214 -0.5751
vn 0.2699 0.7362 -0.6206
vn -0.0581 0.7617 -0.6453
vn 0.6762 0.6101 -0.4129
vn 0.3000 0.9536 -0.0270
vn -0.0941 0.9427 0.3200
vn -0.1433 0.8495 0.5077
vn -0.1715 0.9153 0.3644
vn 0.2920 0.7924 0.5355
vn 0.5852 0.7924 -0.1722
vn -0.6547 0.7535 0.0590
vn -0.5518 0.8319 -0.0590
vn 0.5796 0.7446 0.3312
vn 0.1614 0.5925 0.7892
vn 0.5532 0.6934 0.4618
vn -0.2400 0.9679 0.0750
vn 0.5952 0.6342 -0.4934
vn 0.6142 0.7206 0.3217
vn 0.2918 0.9021 0.3178
vn 0.3470 0.8920 0.2896
vn -0.6912 0.7226 -0.0003
vn -0.7269 0.6165 0.3026
vn 0.0002 0.9423 -0.3347
vn -0.3626 0.9292 -0.0720
vn -0.0636 0.8475 -0.5269
vn 0.0464 0.9145 -0.4020
vn -0.0003 0.7138 0.7003
vn 0.5579 0.6686 0.4916
vn 0.5886 0.7999 0.1168
vn -0.1074 0.9599 -0.2591
vn -0.5770 0.6446 0.5015
vn -0.2807 0.6787 0.6786
vn -0.2502 0.9020 -0.3518
vn 0.3502 0.8689 -0.3499
vn 0.0064 0.9996 -0.0292
vn 0.0182 0.9995 -0.0257
vn 0.0276 0.9995 -0.0183
vn 0.0348 0.9994 -0.0047
vn 0.0325 0.9994 0.0113
vn 0.0237 0.9995 0.0224
vn 0.0148 0.9995 0.0274
vn -0.0002 0.9995 0.0310
vn -0.0084 0.9995 0.0302
vn -0.0170 0.9995 0.0274
vn -0.0250 0.9995 0.0213
vn -0.0279 0.9994 0.0187
vn -0.0324 0.9994 0.0104
vn -0.0342 0.9994 0.0074
vn -0.0351 0.9994 -0.0038
vn -0.0315 0.9994 -0.0143
vn -0.0277 0.9994 -0.0185
vn -0.0240 0.9995 -0.0218
vn -0.0187 0.9995 -0.0256
vn -0.0136 0.9995 -0.0279
vn -0.0074 0.9995 -0.0295
vn 0.0011 0.9996 -0.0298
vn -0.0156 0.9995 0.0274
vn 0.0014 0.9996 -0.0293
vn 0.0118 0.9995 -0.0283
vn 0.0240 0.9995 -0.0214
vn 0.0317 0.9994 -0.0132
vn 0.0345 0.9994 0.0059
vn 0.0272 0.9994 0.0202
vn 0.0180 0.9995 0.0262
vn 0.0105 0.9995 0.0294
vn 0.0001 0.9995 0.0310
usemtl Material.002
s off
f 33//1 63//1 62//1 61//1 60//1 59//1 58//1 57//1 56//1 55//1 54//1 53//1 52//1 51//1 50//1 49//1 48//1 47//1 64//1 46//1 45//1 44//1 43//1 42//1 41//1 40//1 39//1 38//1 37//1 36//1 35//1 34//1
f 65//2 66//2 2//2 1//2
f 67//3 68//3 4//3 3//3
f 69//1 70//1 6//1 5//1
f 71//1 72//1 8//1 7//1
f 73//1 74//1 10//1 9//1
f 75//1 76//1 12//1 11//1
f 77//1 78//1 14//1 13//1
f 79//4 80//4 17//4 16//4
f 80//5 81//5 18//5 17//5
f 82//6 83//6 20//6 19//6
f 83//7 84//7 21//7 20//7
f 84//1 85//1 22//1 21//1
f 85//1 86//1 23//1 22//1
f 86//8 87//8 24//8 23//8
f 87//9 88//9 25//9 24//9
f 88//10 89//10 26//10 25//10
f 89//1 90//1 27//1 26//1
f 90//1 91//1 28//1 27//1
f 91//11 92//11 29//11 28//11
f 92//12 93//12 30//12 29//12
f 93//13 94//13 31//13 30//13
f 94//1 95//1 32//1 31//1
f 81//14 82//14 19//14 18//14
f 95//1 65//1 1//1 32//1
f 66//15 67//15 3//15 2//15
f 68//1 69//1 5//1 4//1
f 70//1 71//1 7//1 6//1
f 72//1 73//1 9//1 8//1
f 74//1 75//1 11//1 10//1
f 76//1 77//1 13//1 12//1
f 78//16 96//16 15//16 14//16
f 96//17 79//17 16//17 15//17
f 97//18 98//18 66//18 65//18
f 99//19 100//19 68//19 67//19
f 101//1 102//1 70//1 69//1
f 103//1 104//1 72//1 71//1
f 105//20 106//20 74//20 73//20
f 107//21 108//21 76//21 75//21
f 109//22 110//22 78//22 77//22
f 111//23 112//23 80//23 79//23
f 112//24 113//24 81//24 80//24
f 114//25 115//25 83//25 82//25
f 115//26 116//26 84//26 83//26
f 116//27 117//27 85//27 84//27
f 117//28 118//28 86//28 85//28
f 118//29 119//29 87//29 86//29
f 119//30 120//30 88//30 87//30
f 120//31 121//31 89//31 88//31
f 121//1 122//1 90//1 89//1
f 122//1 123//1 91//1 90//1
f 123//32 124//32 92//32 91//32
f 124//33 125//33 93//33 92//33
f 125//34 126//34 94//34 93//34
f 126//1 127//1 95//1 94//1
f 113//35 114//35 82//35 81//35
f 127//1 97//1 65//1 95//1
f 98//36 99//36 67//36 66//36
f 100//37 101//37 69//37 68//37
f 102//1 103//1 71//1 70//1
f 104//38 105//38 73//38 72//38
f 106//39 107//39 75//39 74//39
f 108//40 109//40 77//40 76//40
f 110//41 128//41 96//41 78//41
f 128//42 111//42 79//42 96//42
f 129//1 130//1 98//1 97//1
f 131//43 132//43 100//43 99//43
f 133//44 134//44 102//44 101//44
f 135//45 136//45 104//45 103//45
f 137//46 138//46 106//46 105//46
f 139//47 140//47 108//47 107//47
f 141//48 142//48 110//48 109//48
f 143//1 144//1 112//1 111//1
f 144//49 145//49 113//49 112//49
f 146//1 147//1 115//1 114//1
f 147//50 148//50 116//50 115//50
f 148//51 149//51 117//51 116//51
f 149//52 150//52 118//52 117//52
f 150//53 151//53 119//53 118//53
f 151//54 152//54 120//54 119//54
f 152//1 153//1 121//1 120//1
f 153//1 154//1 122//1 121//1
f 154//1 155//1 123//1 122//1
f 155//1 156//1 124//1 123//1
f 156//1 157//1 125//1 124//1
f 157//1 158//1 126//1 125//1
f 158//1 159//1 127//1 126//1
f 145//55 146//55 114//55 113//55
f 159//1 129//1 97//1 127//1
f 130//56 131//56 99//56 98//56
f 132//57 133//57 101//57 100//57
f 134//58 135//58 103//58 102//58
f 136//59 137//59 105//59 104//59
f 138//60 139//60 107//60 106//60
f 140//61 141//61 109//61 108//61
f 142//62 160//62 128//62 110//62
f 160//1 143//1 111//1 128//1
f 161//63 162//63 130//63 129//63
f 163//1 164//1 132//1 131//1
f 165//64 166//64 134//64 133//64
f 167//65 168//65 136//65 135//65
f 169//66 170//66 138//66 137//66
f 171//67 172//67 140//67 139//67
f 173//68 174//68 142//68 141//68
f 175//69 176//69 144//69 143//69
f 176//70 177//70 145//70 144//70
f 178//1 179//1 147//1 146//1
f 179//1 180//1 148//1 147//1
f 180//71 181//71 149//71 148//71
f 181//72 182//72 150//72 149//72
f 182//73 183//73 151//73 150//73
f 183//1 184//1 152//1 151//1
f 184//1 185//1 153//1 152//1
f 185//1 186//1 154//1 153//1
f 186//1 187//1 155//1 154//1
f 187//1 188//1 156//1 155//1
f 188//1 189//1 157//1 156//1
f 189//1 190//1 158//1 157//1
f 190//74 191//74 159//74 158//74
f 177//1 178//1 146//1 145//1
f 191//75 161//75 129//75 159//75
f 162//1 163//1 131//1 130//1
f 164//1 165//1 133//1 132//1
f 166//76 167//76 135//76 134//76
f 168//77 169//77 137//77 136//77
f 170//1 171//1 139//1 138//1
f 172//78 173//78 141//78 140//78
f 174//1 192//1 160//1 142//1
f 192//79 175//79 143//79 160//79
f 193//80 194//80 162//80 161//80
f 195//1 196//1 164//1 163//1
f 197//1 198//1 166//1 165//1
f 199//81 200//81 168//81 167//81
f 201//82 202//82 170//82 169//82
f 203//1 204//1 172//1 171//1
f 205//1 206//1 174//1 173//1
f 207//83 208//83 176//83 175//83
f 208//84 209//84 177//84 176//84
f 210//85 211//85 179//85 178//85
f 211//1 212//1 180//1 179//1
f 212//86 213//86 181//86 180//86
f 213//87 214//87 182//87 181//87
f 214//1 215//1 183//1 182//1
f 215//1 216//1 184//1 183//1
f 216//88 217//88 185//88 184//88
f 217//89 218//89 186//89 185//89
f 218//90 219//90 187//90 186//90
f 219//91 220//91 188//91 187//91
f 220//1 221//1 189//1 188//1
f 221//1 222//1 190//1 189//1
f 222//92 223//92 191//92 190//92
f 209//93 210//93 178//93 177//93
f 223//94 193//94 161//94 191//94
f 194//1 195//1 163//1 162//1
f 196//1 197//1 165//1 164//1
f 198//95 199//95 167//95 166//95
f 200//96 201//96 169//96 168//96
f 202//1 203//1 171//1 170//1
f 204//1 205//1 173//1 172//1
f 206//1 224//1 192//1 174//1
f 224//97 207//97 175//97 192//97
f 225//1 226//1 194//1 193//1
f 227//1 228//1 196//1 195//1
f 229//1 230//1 198//1 197//1
f 231//1 232//1 200//1 199//1
f 233//1 234//1 202//1 201//1
f 235//1 236//1 204//1 203//1
f 237//1 238//1 206//1 205//1
f 239//98 240//98 208//98 207//98
f 240//99 241//99 209//99 208//99
f 242//100 243//100 211//100 210//100
f 243//1 244//1 212//1 211//1
f 244//1 245//1 213//1 212//1
f 245//1 246//1 214//1 213//1
f 246//1 247//1 215//1 214//1
f 247//1 248//1 216//1 215//1
f 248//101 249//101 217//101 216//101
f 249//102 250//102 218//102 217//102
f 250//103 251//103 219//103 218//103
f 251//104 252//104 220//104 219//104
f 252//105 253//105 221//105 220//105
f 253//106 254//106 222//106 221//106
f 254//107 255//107 223//107 222//107
f 241//108 242//108 210//108 209//108
f 255//1 225//1 193//1 223//1
f 226//1 227//1 195//1 194//1
f 228//1 229//1 197//1 196//1
f 230//1 231//1 199//1 198//1
f 232//1 233//1 201//1 200//1
f 234//1 235//1 203//1 202//1
f 236//1 237//1 205//1 204//1
f 238//1 256//1 224//1 206//1
f 256//1 239//1 207//1 224//1
f 257//1 258//1 226//1 225//1
f 259//109 260//109 228//109 227//109
f 261//110 262//110 230//110 229//110
f 263//1 264//1 232//1 231//1
f 265//1 266//1 234//1 233//1
f 267//111 268//111 236//111 235//111
f 269//112 270//112 238//112 237//112
f 271//113 272//113 240//113 239//113
f 272//114 273//114 241//114 240//114
f 274//1 275//1 243//1 242//1
f 275//1 276//1 244//1 243//1
f 276//1 277//1 245//1 244//1
f 277//1 278//1 246//1 245//1
f 278//1 279//1 247//1 246//1
f 279//1 280//1 248//1 247//1
f 280//115 281//115 249//115 248//115
f 281//116 282//116 250//116 249//116
f 282//117 283//117 251//117 250//117
f 283//118 284//118 252//118 251//118
f 284//119 285//119 253//119 252//119
f 285//120 286//120 254//120 253//120
f 286//121 287//121 255//121 254//121
f 273//122 274//122 242//122 241//122
f 287//1 257//1 225//1 255//1
f 258//1 259//1 227//1 226//1
f 260//123 261//123 229//123 228//123
f 262//124 263//124 231//124 230//124
f 264//1 265//1 233//1 232//1
f 266//1 267//1 235//1 234//1
f 268//125 269//125 237//125 236//125
f 270//1 288//1 256//1 238//1
f 288//126 271//126 239//126 256//126
f 289//1 290//1 258//1 257//1
f 291//127 292//127 260//127 259//127
f 293//128 294//128 262//128 261//128
f 295//1 296//1 264//1 263//1
f 297//1 298//1 266//1 265//1
f 299//129 300//129 268//129 267//129
f 301//130 302//130 270//130 269//130
f 303//131 304//131 272//131 271//131
f 304//132 305//132 273//132 272//132
f 306//1 307//1 275//1 274//1
f 307//1 308//1 276//1 275//1
f 308//1 309//1 277//1 276//1
f 309//1 310//1 278//1 277//1
f 310//1 311//1 279//1 278//1
f 311//1 312//1 280//1 279//1
f 312//1 313//1 281//1 280//1
f 313//1 314//1 282//1 281//1
f 314//133 315//133 283//133 282//133
f 315//134 316//134 284//134 283//134
f 316//135 317//135 285//135 284//135
f 317//1 318//1 286//1 285//1
f 318//1 319//1 287//1 286//1
f 305//136 306//136 274//136 273//136
f 319//1 289//1 257//1 287//1
f 290//1 291//1 259//1 258//1
f 292//137 293//137 261//137 260//137
f 294//138 295//138 263//138 262//138
f 296//1 297//1 265//1 264//1
f 298//1 299//1 267//1 266//1
f 300//139 301//139 269//139 268//139
f 302//1 320//1 288//1 270//1
f 320//140 303//140 271//140 288//140
f 33//141 34//141 290//141 289//141
f 35//142 36//142 292//142 291//142
f 37//143 38//143 294//143 293//143
f 39//144 40//144 296//144 295//144
f 41//145 42//145 298//145 297//145
f 43//146 44//146 300//146 299//146
f 45//147 46//147 302//147 301//147
f 47//148 48//148 304//148 303//148
f 48//149 49//149 305//149 304//149
f 50//150 51//150 307//150 306//150
f 51//151 52//151 308//151 307//151
f 52//152 53//152 309//152 308//152
f 53//153 54//153 310//153 309//153
f 54//154 55//154 311//154 310//154
f 55//155 56//155 312//155 311//155
f 56//156 57//156 313//156 312//156
f 57//157 58//157 314//157 313//157
f 58//158 59//158 315//158 314//158
f 59//159 60//159 316//159 315//159
f 60//160 61//160 317//160 316//160
f 61//161 62//161 318//161 317//161
f 62//162 63//162 319//162 318//162
f 49//163 50//163 306//163 305//163
f 63//164 33//164 289//164 319//164
f 34//165 35//165 291//165 290//165
f 36//166 37//166 293//166 292//166
f 38//167 39//167 295//167 294//167
f 40//168 41//168 297//168 296//168
f 42//169 43//169 299//169 298//169
f 44//170 45//170 301//170 300//170
f 46//171 64//171 320//171 302//171
f 64//172 47//172 303//172 320//172
