# Blender v2.79 (sub 0) OBJ File: 'Proxima_Centauri.blend'
# www.blender.org
mtllib Proxima_Centauri.mtl
o Circle
v 0.000001 -0.586250 -64.000000
v -24.491741 0.713750 -59.128288
v -45.254829 0.713750 -45.254833
v -59.128284 0.713750 -24.491739
v -63.999996 -0.286250 0.000003
v -59.128284 -0.286250 24.491745
v -45.254829 -0.286250 45.254833
v -24.491743 -0.286250 59.128288
v -0.000009 -0.286250 64.000000
v 24.491726 -0.286250 59.128296
v 45.254826 -0.286250 45.254848
v 59.128292 -0.286250 24.491749
v 64.000000 -0.286250 -0.000001
v 59.128288 0.713750 -24.491751
v 45.254822 0.713750 -45.254848
v 24.491711 0.713750 -59.128304
v -4.514485 0.213750 -2.178429
v 0.000005 0.213750 -2.543395
v -8.341686 0.213750 -0.609924
v -10.898946 0.213750 0.035684
v -11.796933 0.213750 0.000002
v -9.685496 0.213750 3.638106
v -7.802376 0.213750 5.510305
v -2.357238 0.213750 6.449634
v 0.741548 0.213750 8.763312
v 2.761727 0.213750 4.022730
v 6.926001 0.213750 3.959790
v 8.674292 0.213750 2.761730
v 11.796936 0.213750 0.000005
v 10.898945 0.213750 0.032820
v 8.341688 0.213750 -0.856730
v 4.514475 0.213750 -2.202912
v -19.497429 -1.186250 -47.070953
v 0.000004 -1.186250 -50.949234
v -36.026543 -1.186250 -36.026546
v -47.070950 -1.186250 -19.497427
v -50.949230 0.213750 0.000003
v -47.070950 0.213750 19.497431
v -36.026543 0.213750 36.026546
v -19.497429 0.213750 47.070953
v -0.000006 0.213750 50.949234
v 19.497417 0.213750 47.070957
v 36.026543 0.213750 36.026558
v 47.070957 0.213750 19.497435
v 50.949238 0.213750 0.000000
v 47.070953 -1.186250 -19.497437
v 36.026539 -1.186250 -36.026558
v 19.497402 -1.186250 -47.070965
v -14.503116 -1.986250 -35.013618
v 0.000005 -1.986250 -37.898468
v -26.798260 -1.986250 -26.798260
v -35.013615 -1.186250 -14.503115
v -37.898464 0.213750 0.000003
v -35.013615 0.213750 14.503117
v -26.798260 0.213750 26.798260
v -14.503114 0.213750 35.013618
v -0.000005 0.213750 37.898468
v 14.503108 0.213750 35.013618
v 26.798256 0.213750 26.798269
v 35.013622 0.213750 14.503120
v 37.898472 0.213750 0.000001
v 35.013618 -1.186250 -14.503120
v 26.798252 -1.986250 -26.798269
v 14.503094 -1.986250 -35.013626
v -5.818361 -1.186250 -6.013805
v 0.000006 -1.186250 -5.053520
v -11.027829 -1.186250 -3.814694
v -13.730183 -1.186250 -1.289183
v -15.957094 -1.786250 0.670991
v -13.730183 -1.786250 3.134405
v -10.524588 -1.786250 10.189093
v -6.824843 -1.786250 15.743150
v -0.167752 -1.786250 16.292589
v 4.644126 -1.786250 14.233421
v 10.692335 -1.786250 8.343880
v 15.072162 -1.786250 4.811880
v 16.292587 -1.786250 0.335498
v 14.233421 -1.186250 -1.624681
v 9.350352 -1.186250 -1.298492
v 5.315102 -1.186250 -3.833096
vn 0.0000 1.0000 -0.0000
vn 0.0472 0.9949 0.0897
vn 0.0816 0.9892 0.1221
vn 0.1221 0.9892 0.0816
vn 0.0553 0.9985 0.0019
vn -0.0383 0.9992 0.0076
vn -0.0325 0.9992 0.0217
vn -0.0217 0.9992 0.0325
vn -0.0076 0.9992 0.0383
vn 0.0076 0.9992 0.0383
vn 0.0217 0.9992 0.0325
vn 0.0325 0.9992 0.0217
vn 0.0383 0.9992 0.0076
vn -0.0553 0.9985 0.0019
vn -0.1221 0.9892 0.0816
vn -0.0816 0.9892 0.1221
vn -0.0472 0.9949 0.0897
vn 0.0122 0.9981 0.0612
vn 0.0347 0.9981 0.0519
vn 0.0388 0.9992 -0.0018
vn 0.0157 0.9968 -0.0790
vn -0.0157 0.9968 -0.0790
vn -0.0388 0.9992 -0.0018
vn -0.0347 0.9981 0.0519
vn -0.0122 0.9981 0.0612
vn -0.0024 0.9997 -0.0255
vn -0.0143 0.9996 -0.0240
vn 0.0181 0.9990 -0.0406
vn 0.0562 0.9979 -0.0311
vn 0.0858 0.9960 -0.0258
vn 0.0737 0.9963 -0.0435
vn 0.0607 0.9957 -0.0705
vn 0.0154 0.9954 -0.0946
vn -0.0227 0.9958 -0.0886
vn -0.0518 0.9964 -0.0673
vn -0.0682 0.9962 -0.0543
vn -0.0914 0.9956 -0.0198
vn -0.0569 0.9979 -0.0314
vn -0.0220 0.9988 -0.0427
vn 0.0142 0.9997 -0.0216
vn 0.0050 0.9997 -0.0243
vn 0.0235 0.9128 -0.4076
vn -0.1267 0.9443 -0.3038
vn -0.1984 0.9232 -0.3290
vn -0.3820 0.8536 -0.3541
vn -0.4139 0.8614 0.2943
vn -0.3906 0.8932 0.2227
vn -0.1442 0.9685 0.2031
vn -0.0622 0.9753 0.2120
vn 0.2037 0.9574 0.2047
vn 0.1262 0.9681 0.2165
vn 0.2038 0.9427 0.2641
vn 0.3035 0.9353 0.1821
vn 0.3488 0.9021 -0.2543
vn 0.0571 0.6541 -0.7543
vn 0.3210 0.6886 -0.6503
vn 0.0868 0.8329 -0.5465
usemtl Material.002
s off
f 17//1 19//1 20//1 21//1 22//1 23//1 24//1 25//1 26//1 27//1 28//1 29//1 30//1 31//1 32//1 18//1
f 33//2 34//2 1//2 2//2
f 35//3 33//3 2//3 3//3
f 36//4 35//4 3//4 4//4
f 37//5 36//5 4//5 5//5
f 38//6 37//6 5//6 6//6
f 39//7 38//7 6//7 7//7
f 40//8 39//8 7//8 8//8
f 41//9 40//9 8//9 9//9
f 42//10 41//10 9//10 10//10
f 43//11 42//11 10//11 11//11
f 44//12 43//12 11//12 12//12
f 45//13 44//13 12//13 13//13
f 46//14 45//14 13//14 14//14
f 47//15 46//15 14//15 15//15
f 48//16 47//16 15//16 16//16
f 34//17 48//17 16//17 1//17
f 49//18 50//18 34//18 33//18
f 51//19 49//19 33//19 35//19
f 52//20 51//20 35//20 36//20
f 53//21 52//21 36//21 37//21
f 54//1 53//1 37//1 38//1
f 55//1 54//1 38//1 39//1
f 56//1 55//1 39//1 40//1
f 57//1 56//1 40//1 41//1
f 58//1 57//1 41//1 42//1
f 59//1 58//1 42//1 43//1
f 60//1 59//1 43//1 44//1
f 61//1 60//1 44//1 45//1
f 62//22 61//22 45//22 46//22
f 63//23 62//23 46//23 47//23
f 64//24 63//24 47//24 48//24
f 50//25 64//25 48//25 34//25
f 65//26 66//26 50//26 49//26
f 67//27 65//27 49//27 51//27
f 68//28 67//28 51//28 52//28
f 69//29 68//29 52//29 53//29
f 70//30 69//30 53//30 54//30
f 71//31 70//31 54//31 55//31
f 72//32 71//32 55//32 56//32
f 73//33 72//33 56//33 57//33
f 74//34 73//34 57//34 58//34
f 75//35 74//35 58//35 59//35
f 76//36 75//36 59//36 60//36
f 77//37 76//37 60//37 61//37
f 78//38 77//38 61//38 62//38
f 79//39 78//39 62//39 63//39
f 80//40 79//40 63//40 64//40
f 66//41 80//41 64//41 50//41
f 17//42 18//42 66//42 65//42
f 19//43 17//43 65//43 67//43
f 20//44 19//44 67//44 68//44
f 21//45 20//45 68//45 69//45
f 22//46 21//46 69//46 70//46
f 23//47 22//47 70//47 71//47
f 24//48 23//48 71//48 72//48
f 25//49 24//49 72//49 73//49
f 26//50 25//50 73//50 74//50
f 27//51 26//51 74//51 75//51
f 28//52 27//52 75//52 76//52
f 29//53 28//53 76//53 77//53
f 30//54 29//54 77//54 78//54
f 31//55 30//55 78//55 79//55
f 32//56 31//56 79//56 80//56
f 18//57 32//57 80//57 66//57
