<?xml version="1.0" standalone="no"?>
<!DOCTYPE svg PUBLIC "-//W3C//DTD SVG 20010904//EN"
 "http://www.w3.org/TR/2001/REC-SVG-20010904/DTD/svg10.dtd">
<svg version="1.0" xmlns="http://www.w3.org/2000/svg"
 width="360.000000pt" height="360.000000pt" viewBox="0 0 360.000000 360.000000"
 preserveAspectRatio="xMidYMid meet">
<metadata>
Created by potrace 1.11, written by Peter Selinger 2001-2013
</metadata>
<g transform="translate(0.000000,360.000000) scale(0.100000,-0.100000)"
fill="#000000" stroke="none">
<path d="M601 3584 c-165 -44 -298 -174 -351 -342 -19 -61 -20 -95 -20 -991 0
-818 2 -935 16 -982 52 -175 187 -309 359 -354 45 -11 115 -15 292 -15 l233 0
1 -32 c6 -178 91 -422 192 -551 171 -221 435 -332 745 -313 330 19 621 185
756 430 28 51 81 199 93 258 3 18 8 275 10 571 l4 537 225 0 224 0 0 450 0
450 -675 0 -675 0 0 450 0 450 -687 -1 c-568 0 -697 -3 -742 -15z"/>
</g>
</svg>
